<svg aria-hidden="true" style="position: absolute; width: 0; height: 0; overflow: hidden;" version="1.1" xmlns="http://www.w3.org/2000/svg" xmlns:xlink="http://www.w3.org/1999/xlink">
<defs>
<symbol id="vector-github-logo-text" viewBox="0 0 113 32">
<path d="M21.629 12.997h-9.436c-0.243 0-0.441 0.198-0.441 0.441v4.614c0 0.244 0.198 0.441 0.441 0.441h3.681v5.732c0 0-0.826 0.282-3.112 0.282-2.696 0-6.462-0.985-6.462-9.267 0-8.284 3.922-9.373 7.604-9.373 3.187 0 4.56 0.561 5.434 0.832 0.275 0.084 0.528-0.189 0.528-0.433l1.053-4.458c0-0.114-0.039-0.251-0.168-0.345-0.355-0.253-2.519-1.464-7.988-1.464-6.299 0-12.762 2.68-12.762 15.564s7.398 14.804 13.633 14.804c5.162 0 8.294-2.206 8.294-2.206 0.129-0.071 0.143-0.252 0.143-0.334v-14.389c0-0.243-0.197-0.441-0.441-0.441z"></path>
<path d="M70.26 1.543c0-0.245-0.195-0.444-0.438-0.444h-5.313c-0.243 0-0.44 0.198-0.44 0.444 0 0.001 0.001 10.268 0.001 10.268h-8.282v-10.268c0-0.245-0.195-0.444-0.439-0.444h-5.313c-0.242 0-0.439 0.198-0.439 0.444v27.803c0 0.245 0.197 0.445 0.439 0.445h5.313c0.243 0 0.439-0.2 0.439-0.445v-11.893h8.282c0 0-0.014 11.892-0.014 11.893 0 0.245 0.197 0.445 0.44 0.445h5.326c0.243 0 0.438-0.2 0.438-0.445v-27.803z"></path>
<path d="M31.655 5.191c0-1.913-1.534-3.459-3.427-3.459-1.891 0-3.425 1.546-3.425 3.459 0 1.911 1.535 3.461 3.425 3.461 1.893 0 3.427-1.55 3.427-3.461z"></path>
<path d="M31.275 29.076v-18.43c0-0.243-0.196-0.443-0.44-0.443h-5.296c-0.243 0-0.46 0.25-0.46 0.494v18.387c0 0.54 0.337 0.701 0.773 0.701h4.772c0.523 0 0.652-0.257 0.652-0.71z"></path>
<path d="M90.453 10.246h-5.272c-0.242 0-0.439 0.199-0.439 0.445v13.633c0 0-1.34 0.98-3.241 0.98s-2.406-0.863-2.406-2.724v-11.889c0-0.245-0.196-0.445-0.438-0.445h-5.351c-0.241 0-0.439 0.199-0.439 0.445v12.789c0 5.529 3.082 6.882 7.321 6.882 3.478 0 6.282-1.921 6.282-1.921s0.133 1.013 0.194 1.133c0.060 0.12 0.218 0.241 0.388 0.241l3.404-0.015c0.241 0 0.439-0.2 0.439-0.444l-0.002-18.664c0-0.245-0.197-0.445-0.44-0.445z"></path>
<path d="M102.785 25.286c-1.829-0.056-3.069-0.885-3.069-0.885v-8.805c0 0 1.224-0.75 2.725-0.884 1.899-0.17 3.728 0.403 3.728 4.933 0 4.776-0.826 5.719-3.384 5.642zM104.864 9.621c-2.995 0-5.031 1.336-5.031 1.336v-9.415c0-0.245-0.196-0.444-0.438-0.444h-5.329c-0.242 0-0.439 0.198-0.439 0.444v27.803c0 0.245 0.197 0.445 0.44 0.445h3.697c0.166 0 0.292-0.086 0.386-0.236 0.092-0.149 0.224-1.282 0.224-1.282s2.179 2.065 6.303 2.065c4.842 0 7.619-2.456 7.619-11.026s-4.435-9.69-7.432-9.69z"></path>
<path d="M46.546 10.201h-3.986c0 0-0.006-5.264-0.006-5.266 0-0.199-0.103-0.299-0.333-0.299h-5.431c-0.211 0-0.325 0.093-0.325 0.296v5.441c0 0-2.722 0.657-2.906 0.71s-0.318 0.222-0.318 0.424v3.419c0 0.246 0.196 0.444 0.439 0.444h2.785v8.226c0 6.11 4.286 6.71 7.177 6.71 1.322 0 2.902-0.424 3.163-0.521 0.158-0.058 0.25-0.221 0.25-0.398l0.004-3.762c0-0.245-0.207-0.444-0.441-0.444s-0.827 0.094-1.438 0.094c-1.958 0-2.621-0.91-2.621-2.088s-0-7.817-0-7.817h3.986c0.243 0 0.44-0.199 0.44-0.444v-4.283c0-0.245-0.197-0.443-0.44-0.443z"></path>
</symbol>
<symbol id="vector-github-logo" viewBox="0 0 33 32">
<path d="M16.207 0.003c-8.95 0-16.207 7.256-16.207 16.207 0 7.16 4.644 13.236 11.083 15.379 0.81 0.15 1.107-0.352 1.107-0.78 0-0.386-0.015-1.663-0.022-3.017-4.509 0.98-5.46-1.912-5.46-1.912-0.737-1.873-1.8-2.371-1.8-2.371-1.47-1.006 0.111-0.985 0.111-0.985 1.627 0.114 2.484 1.67 2.484 1.67 1.445 2.477 3.791 1.761 4.716 1.347 0.146-1.047 0.565-1.762 1.029-2.167-3.6-0.41-7.384-1.8-7.384-8.010 0-1.769 0.633-3.215 1.67-4.35-0.168-0.408-0.723-2.057 0.157-4.289 0 0 1.361-0.435 4.458 1.662 1.293-0.359 2.679-0.539 4.057-0.546 1.377 0.006 2.765 0.187 4.060 0.546 3.093-2.097 4.452-1.662 4.452-1.662 0.882 2.232 0.327 3.881 0.159 4.289 1.039 1.135 1.668 2.581 1.668 4.35 0 6.225-3.791 7.595-7.4 7.997 0.581 0.503 1.099 1.489 1.099 3.001 0 2.169-0.019 3.914-0.019 4.448 0 0.432 0.291 0.937 1.113 0.778 6.436-2.145 11.074-8.218 11.074-15.377 0-8.951-7.256-16.207-16.207-16.207z"></path>
</symbol>
<symbol id="vector-twitter" viewBox="0 0 39 32">
<path d="M34.816 8.046c0.024 0.34 0.024 0.681 0.024 1.024 0 10.467-7.969 22.54-22.54 22.54v-0.006c-4.304 0.006-8.519-1.227-12.143-3.551 0.626 0.075 1.255 0.113 1.885 0.114 3.567 0.003 7.032-1.194 9.838-3.398-3.39-0.064-6.362-2.274-7.401-5.501 1.187 0.229 2.411 0.182 3.576-0.136-3.696-0.747-6.354-3.994-6.354-7.765 0-0.034 0-0.067 0-0.1 1.101 0.613 2.334 0.954 3.595 0.991-3.481-2.326-4.554-6.957-2.452-10.577 4.022 4.949 9.956 7.958 16.326 8.276-0.638-2.751 0.234-5.635 2.292-7.569 3.191-2.999 8.209-2.845 11.208 0.344 1.774-0.35 3.474-1.001 5.031-1.923-0.591 1.834-1.829 3.391-3.482 4.381 1.57-0.185 3.104-0.606 4.549-1.247-1.064 1.594-2.403 2.982-3.953 4.104z"></path>
</symbol>
<symbol id="vector-arrow" viewBox="0 0 32 32">
<path d="M30.993 5.333l-14.993 19.165-14.959-19.165-1.041 0.825 16 20.508 16-20.521-1.007-0.812z"></path>
</symbol>
<symbol id="vector-mail" viewBox="0 0 32 32">
<path d="M32 0l-8 29.333-10.839-9.652 10.403-10.979-13.944 9.636-9.62-2.339 32-16zM12 22.224v9.776l4.344-5.908-4.344-3.868z"></path>
</symbol>
<symbol id="vector-appStore-logo" viewBox="0 0 33 32">
<g transform="scale(4.00216 4.0011)">
<path fill="#FFF" d="M134.032 35.268a3.83 3.83 0 0 1-3.834 3.83H4.729a3.835 3.835 0 0 1-3.839-3.83V4.725A3.84 3.84 0 0 1 4.729.89h125.468a3.834 3.834 0 0 1 3.834 3.835l.001 30.543z"/>
<path fill="#A6A6A6" d="M130.198 39.989H4.729A4.73 4.73 0 0 1 0 35.268V4.726A4.733 4.733 0 0 1 4.729 0h125.468a4.735 4.735 0 0 1 4.729 4.726v30.542c.002 2.604-2.123 4.721-4.728 4.721z"/>
<path d="M134.032 35.268a3.83 3.83 0 0 1-3.834 3.83H4.729a3.835 3.835 0 0 1-3.839-3.83V4.725A3.84 3.84 0 0 1 4.729.89h125.468a3.834 3.834 0 0 1 3.834 3.835l.001 30.543z"/>
<path fill="#FFF" d="M30.128 19.784c-.029-3.223 2.639-4.791 2.761-4.864-1.511-2.203-3.853-2.504-4.676-2.528-1.967-.207-3.875 1.177-4.877 1.177-1.022 0-2.565-1.157-4.228-1.123-2.14.033-4.142 1.272-5.24 3.196-2.266 3.923-.576 9.688 1.595 12.859 1.086 1.554 2.355 3.287 4.016 3.226 1.625-.066 2.232-1.035 4.193-1.035 1.943 0 2.513 1.035 4.207.996 1.744-.027 2.842-1.56 3.89-3.127 1.255-1.779 1.759-3.533 1.779-3.623-.04-.014-3.386-1.292-3.42-5.154zM26.928 10.306c.874-1.093 1.472-2.58 1.306-4.089-1.265.056-2.847.875-3.758 1.944-.806.942-1.526 2.486-1.34 3.938 1.421.106 2.88-.717 3.792-1.793z"/>
<linearGradient id="a" gradientUnits="userSpaceOnUse" x1="-23.235" y1="97.431" x2="-23.235" y2="61.386" gradientTransform="matrix(4.0022 0 0 4.0011 191.95 -349.736)">
<stop offset="0" stop-color="#1a1a1a" stop-opacity=".1"/>
<stop offset=".123" stop-color="#212121" stop-opacity=".151"/>
<stop offset=".308" stop-color="#353535" stop-opacity=".227"/>
<stop offset=".532" stop-color="#575757" stop-opacity=".318"/>
<stop offset=".783" stop-color="#858585" stop-opacity=".421"/>
<stop offset="1" stop-color="#b3b3b3" stop-opacity=".51"/>
</linearGradient>
<path fill="url(#a)" d="M130.198 0H62.993l26.323 39.989h40.882a4.733 4.733 0 0 0 4.729-4.724V4.726A4.734 4.734 0 0 0 130.198 0z"/>
<g fill="#FFF">
<path d="M53.665 31.504h-2.271l-1.244-3.909h-4.324l-1.185 3.909H42.43l4.285-13.308h2.646l4.304 13.308zm-3.89-5.549L48.65 22.48c-.119-.355-.343-1.191-.671-2.507h-.04c-.132.566-.343 1.402-.632 2.507l-1.106 3.475h3.574zM64.663 26.588c0 1.632-.443 2.922-1.33 3.869-.794.843-1.781 1.264-2.958 1.264-1.271 0-2.185-.453-2.74-1.361v5.035h-2.132V25.062c0-1.025-.027-2.076-.079-3.154h1.875l.119 1.521h.04c.711-1.146 1.79-1.719 3.238-1.719 1.132 0 2.077.447 2.833 1.342.755.897 1.134 2.075 1.134 3.536zm-2.172.078c0-.934-.21-1.704-.632-2.311-.461-.631-1.08-.947-1.856-.947-.526 0-1.004.176-1.431.523-.428.35-.708.807-.839 1.373a2.784 2.784 0 0 0-.099.649v1.601c0 .697.214 1.286.642 1.768.428.48.984.721 1.668.721.803 0 1.428-.311 1.875-.928.448-.619.672-1.435.672-2.449zM75.7 26.588c0 1.632-.443 2.922-1.33 3.869-.795.843-1.781 1.264-2.959 1.264-1.271 0-2.185-.453-2.74-1.361v5.035h-2.132V25.062c0-1.025-.027-2.076-.079-3.154h1.875l.119 1.521h.04c.71-1.146 1.789-1.719 3.238-1.719 1.131 0 2.076.447 2.834 1.342.754.897 1.134 2.075 1.134 3.536zm-2.173.078c0-.934-.211-1.704-.633-2.311-.461-.631-1.078-.947-1.854-.947-.526 0-1.004.176-1.433.523-.428.35-.707.807-.838 1.373-.065.264-.1.479-.1.649v1.601c0 .697.215 1.286.641 1.768.428.479.984.721 1.67.721.804 0 1.429-.311 1.875-.928.448-.619.672-1.435.672-2.449zM88.04 27.771c0 1.133-.396 2.054-1.183 2.765-.866.776-2.075 1.165-3.625 1.165-1.432 0-2.58-.276-3.446-.829l.493-1.777c.935.554 1.962.83 3.08.83.804 0 1.429-.182 1.875-.543.447-.362.673-.846.673-1.45 0-.541-.187-.994-.554-1.363-.369-.368-.979-.711-1.836-1.026-2.33-.869-3.496-2.14-3.496-3.812 0-1.092.412-1.986 1.234-2.685.822-.698 1.912-1.047 3.268-1.047 1.211 0 2.22.211 3.021.632l-.535 1.738c-.754-.408-1.605-.612-2.557-.612-.752 0-1.342.185-1.764.553-.355.329-.535.73-.535 1.206 0 .525.205.961.613 1.303.354.315 1 .658 1.934 1.026 1.146.462 1.988 1 2.527 1.618.543.618.813 1.389.813 2.308zM95.107 23.508h-2.35v4.659c0 1.185.414 1.776 1.244 1.776.381 0 .697-.032.947-.099l.059 1.619c-.42.157-.973.236-1.658.236-.842 0-1.5-.257-1.975-.771-.473-.514-.711-1.375-.711-2.587v-4.837h-1.4v-1.6h1.4v-1.757l2.094-.632v2.389h2.35v1.604zM105.689 26.627c0 1.475-.422 2.686-1.264 3.633-.881.975-2.053 1.461-3.514 1.461-1.41 0-2.531-.467-3.367-1.4-.836-.935-1.254-2.113-1.254-3.534 0-1.487.432-2.705 1.293-3.652.863-.948 2.025-1.422 3.486-1.422 1.408 0 2.539.468 3.395 1.402.818.906 1.225 2.076 1.225 3.512zm-2.21.049c0-.879-.19-1.633-.571-2.264-.447-.762-1.087-1.143-1.916-1.143-.854 0-1.509.381-1.955 1.143-.382.631-.572 1.398-.572 2.304 0 .88.19 1.636.572 2.265.461.762 1.104 1.143 1.937 1.143.815 0 1.454-.389 1.916-1.162.392-.646.589-1.405.589-2.286zM112.622 23.783a3.71 3.71 0 0 0-.672-.059c-.75 0-1.33.282-1.738.85-.354.5-.532 1.132-.532 1.895v5.035h-2.132V24.93a67.43 67.43 0 0 0-.062-3.021h1.857l.078 1.836h.059c.226-.631.58-1.14 1.066-1.521a2.578 2.578 0 0 1 1.541-.514c.197 0 .375.014.533.039l.002 2.034zM122.157 26.252a5 5 0 0 1-.078.967h-6.396c.024.948.334 1.674.928 2.174.539.446 1.236.67 2.092.67.947 0 1.811-.15 2.588-.453l.334 1.479c-.908.396-1.98.593-3.217.593-1.488 0-2.656-.438-3.506-1.312-.848-.875-1.273-2.051-1.273-3.524 0-1.446.395-2.651 1.186-3.612.828-1.026 1.947-1.539 3.355-1.539 1.383 0 2.43.513 3.141 1.539.563.813.846 1.821.846 3.018zm-2.033-.553c.015-.633-.125-1.178-.414-1.639-.369-.594-.937-.89-1.698-.89-.697 0-1.265.289-1.697.869-.355.461-.566 1.015-.631 1.658l4.44.002z"/>
</g>
<g fill="#FFF">
<path d="M45.211 13.491c-.593 0-1.106-.029-1.533-.078V6.979a11.606 11.606 0 0 1 1.805-.136c2.445 0 3.571 1.203 3.571 3.164 0 2.262-1.33 3.484-3.843 3.484zm.358-5.823c-.33 0-.611.02-.844.068v4.891c.126.02.368.029.708.029 1.602 0 2.514-.912 2.514-2.62 0-1.523-.825-2.368-2.378-2.368zM52.563 13.54c-1.378 0-2.271-1.029-2.271-2.426 0-1.456.912-2.494 2.349-2.494 1.358 0 2.271.98 2.271 2.417 0 1.474-.941 2.503-2.349 2.503zm.04-4.154c-.757 0-1.242.708-1.242 1.698 0 .971.495 1.679 1.232 1.679s1.232-.757 1.232-1.699c0-.96-.485-1.678-1.222-1.678zM62.77 8.717l-1.475 4.716h-.961l-.611-2.048a15.53 15.53 0 0 1-.379-1.523h-.02c-.077.514-.223 1.029-.378 1.523l-.65 2.048h-.971l-1.388-4.716h1.077l.534 2.242c.126.534.232 1.038.32 1.514h.02c.077-.397.203-.893.388-1.504l.67-2.251h.854l.641 2.203c.155.534.281 1.058.379 1.553h.028c.068-.485.175-1 .32-1.553l.573-2.203 1.029-.001zM68.2 13.433h-1.048v-2.708c0-.834-.32-1.252-.951-1.252-.621 0-1.048.534-1.048 1.155v2.805h-1.048v-3.368c0-.417-.01-.864-.039-1.349h.922l.049.728h.029c.282-.504.854-.824 1.495-.824.99 0 1.64.757 1.64 1.989l-.001 2.824zM71.09 13.433h-1.049v-6.88h1.049v6.88zM74.911 13.54c-1.377 0-2.271-1.029-2.271-2.426 0-1.456.912-2.494 2.348-2.494 1.359 0 2.271.98 2.271 2.417.001 1.474-.941 2.503-2.348 2.503zm.039-4.154c-.757 0-1.242.708-1.242 1.698 0 .971.496 1.679 1.231 1.679.738 0 1.232-.757 1.232-1.699.001-.96-.483-1.678-1.221-1.678zM81.391 13.433l-.076-.543h-.028c-.32.437-.787.65-1.379.65-.845 0-1.445-.592-1.445-1.388 0-1.164 1.009-1.766 2.756-1.766v-.087c0-.621-.329-.932-.979-.932-.465 0-.873.117-1.232.35l-.213-.689c.436-.272.98-.408 1.619-.408 1.232 0 1.854.65 1.854 1.951v1.737c0 .476.021.845.068 1.126l-.945-.001zm-.144-2.349c-1.164 0-1.748.282-1.748.951 0 .495.301.737.719.737.533 0 1.029-.407 1.029-.96v-.728zM87.357 13.433l-.049-.757h-.029c-.301.572-.807.864-1.514.864-1.137 0-1.979-1-1.979-2.407 0-1.475.873-2.514 2.065-2.514.631 0 1.078.213 1.33.641h.021V6.553h1.049v5.609c0 .456.011.883.039 1.271h-.933zm-.155-2.775c0-.66-.437-1.223-1.104-1.223-.777 0-1.252.689-1.252 1.659 0 .951.493 1.602 1.231 1.602.659 0 1.125-.573 1.125-1.252v-.786zM94.902 13.54c-1.377 0-2.27-1.029-2.27-2.426 0-1.456.912-2.494 2.348-2.494 1.359 0 2.271.98 2.271 2.417.001 1.474-.94 2.503-2.349 2.503zm.039-4.154c-.756 0-1.241.708-1.241 1.698 0 .971.495 1.679 1.231 1.679.738 0 1.232-.757 1.232-1.699.002-.96-.483-1.678-1.222-1.678zM102.887 13.433h-1.049v-2.708c0-.834-.32-1.252-.951-1.252-.621 0-1.047.534-1.047 1.155v2.805h-1.049v-3.368c0-.417-.01-.864-.039-1.349h.922l.049.728h.029c.281-.504.854-.825 1.494-.825.99 0 1.641.757 1.641 1.989v2.825zM109.938 9.503h-1.153v2.29c0 .583.202.874.61.874.185 0 .34-.02.465-.049l.029.796c-.203.078-.475.117-.813.117-.826 0-1.32-.456-1.32-1.65V9.503h-.688v-.786h.688v-.864l1.029-.311v1.174h1.153v.787zM115.486 13.433h-1.047v-2.688c0-.844-.319-1.271-.951-1.271-.543 0-1.049.369-1.049 1.116v2.843h-1.047v-6.88h1.047v2.833h.021c.33-.514.808-.767 1.418-.767.998 0 1.608.776 1.608 2.009v2.805zM121.17 11.327h-3.145c.02.893.611 1.397 1.486 1.397.465 0 .893-.078 1.271-.223l.163.728c-.446.194-.971.291-1.582.291-1.475 0-2.348-.932-2.348-2.377 0-1.446.894-2.533 2.23-2.533 1.205 0 1.961.893 1.961 2.242a2.02 2.02 0 0 1-.036.475zm-.961-.747c0-.728-.367-1.242-1.037-1.242-.602 0-1.078.524-1.146 1.242h2.183z"/>
</g>
</g>

</symbol>
</defs>
</svg>
